<svg width="26" height="21" viewBox="0 0 26 21" fill="none" xmlns="http://www.w3.org/2000/svg">
<path d="M25.9824 0.858051C26.1091 0.309766 25.5307 -0.152541 24.9664 0.0475389L0.490036 8.73025C0.195457 8.83478 0.000610803 9.09715 1.43342e-06 9.39014C-0.000607936 9.68318 0.193121 9.94626 0.487294 10.0518L7.36317 12.5196L7.36317 20.2921C7.36317 20.62 7.60544 20.9049 7.94872 20.9808C8.28971 21.0561 8.64528 20.9054 8.80514 20.6107L11.6489 15.3667L18.5888 20.1527C19.011 20.4439 19.6177 20.2587 19.7714 19.7908C26.2509 0.0490968 25.9708 0.907647 25.9824 0.858051ZM19.9404 3.34574L8.01692 11.2366L2.88664 9.39538L19.9404 3.34574ZM8.88659 12.399L19.2798 5.52091C10.3366 14.2881 10.8037 13.8266 10.7647 13.8754C10.7067 13.9479 10.8655 13.6655 8.88659 17.3146V12.399ZM18.6293 18.4177L12.5206 14.2049L23.566 3.37689L18.6293 18.4177Z" fill="#3F0E40"/>
</svg>
